<?xml version="1.0" encoding="UTF-8" standalone="no"?>
<!-- Created with Inkscape (http://www.inkscape.org/) -->

<svg
   xmlns:dc="http://purl.org/dc/elements/1.1/"
   xmlns:cc="http://creativecommons.org/ns#"
   xmlns:rdf="http://www.w3.org/1999/02/22-rdf-syntax-ns#"
   xmlns:svg="http://www.w3.org/2000/svg"
   xmlns="http://www.w3.org/2000/svg"
   xmlns:sodipodi="http://sodipodi.sourceforge.net/DTD/sodipodi-0.dtd"
   xmlns:inkscape="http://www.inkscape.org/namespaces/inkscape"
   width="129.56728mm"
   height="145.16559mm"
   viewBox="0 0 459.09665 514.36626"
   id="svg9037"
   version="1.1"
   inkscape:version="0.91 r13725"
   sodipodi:docname="cyberscooty-mulled_wine.svg">
  <defs
     id="defs9039" />
  <sodipodi:namedview
     id="base"
     pagecolor="#ffffff"
     bordercolor="#666666"
     borderopacity="1.0"
     inkscape:pageopacity="0.0"
     inkscape:pageshadow="2"
     inkscape:zoom="0.35"
     inkscape:cx="-72.66391"
     inkscape:cy="-14.245365"
     inkscape:document-units="px"
     inkscape:current-layer="layer1"
     showgrid="false"
     fit-margin-top="0"
     fit-margin-left="0"
     fit-margin-right="0"
     fit-margin-bottom="0"
     inkscape:window-width="1920"
     inkscape:window-height="1017"
     inkscape:window-x="-8"
     inkscape:window-y="-8"
     inkscape:window-maximized="1" />
  <metadata
     id="metadata9042">
    <rdf:RDF>
      <cc:Work
         rdf:about="">
        <dc:format>image/svg+xml</dc:format>
        <dc:type
           rdf:resource="http://purl.org/dc/dcmitype/StillImage" />
        <dc:title></dc:title>
      </cc:Work>
    </rdf:RDF>
  </metadata>
  <g
     inkscape:label="Calque 1"
     inkscape:groupmode="layer"
     id="layer1"
     transform="translate(-4.8067667,-3.7505978)">
    <g
       transform="matrix(1.6979277,0,0,1.6979277,531.07469,-1702.7992)"
       id="g8864">
      <path
         style="fill:#b8b8b8;fill-opacity:1;fill-rule:evenodd;stroke:#000000;stroke-width:1.29815495;stroke-linecap:round;stroke-linejoin:round;stroke-miterlimit:4;stroke-dasharray:none;stroke-opacity:1"
         d="m -275.40042,1173.8956 -27.2767,-1.5454 6.6453,-9.968 16.84511,-0.3864 z"
         id="path8587"
         inkscape:connector-curvature="0" />
      <path
         style="fill:#dfdfdf;fill-opacity:1;fill-rule:evenodd;stroke:#000000;stroke-width:1.29815495;stroke-linecap:butt;stroke-linejoin:miter;stroke-miterlimit:4;stroke-dasharray:none;stroke-opacity:1"
         d="m -270.45506,1180.6954 -1.08179,76.4984 c 4.58166,24.6821 34.66982,48.6356 90.39628,50.1155 50.15137,1.3319 96.545115,-20.7 97.68162,-54.9063 l -0.77271,-73.7166 c -27.51771,17.8408 -58.00966,31.1779 -99.8343,27.354 -30.18803,-3.6769 -59.08509,-11.7799 -86.3891,-25.345 z"
         id="path8589"
         inkscape:connector-curvature="0"
         sodipodi:nodetypes="ccscccc" />
      <path
         style="fill:#dfdfdf;fill-opacity:1;fill-rule:evenodd;stroke:#000000;stroke-width:1.29815495;stroke-linecap:round;stroke-linejoin:round;stroke-miterlimit:4;stroke-dasharray:none;stroke-opacity:1"
         d="m -280.96397,1160.6822 -11.43609,-0.1545 c -6.87239,-0.093 -11.07491,2.6503 -13.05884,6.7226 l -2.93629,6.0271 c -2.22495,4.5671 -0.71715,10.8126 8.4998,17.4633 8.94164,6.452 15.56466,8.6299 27.04493,11.5906 1.51512,0.3908 3.08503,1.0688 3.8422,-2.2114 0.54232,-3.8954 -0.53904,-10.9059 -2.91497,-11.6201 l -15.60875,-4.2499 c -7.88577,-2.1471 -12.3259,-5.8557 -11.20433,-9.968 l 1.15908,-4.2499 c 2.41318,-6.4052 6.69073,-6.9105 16.30906,-6.4634 1.84671,0.086 -1.38067,-2.1882 0.3042,-2.8864 z"
         id="path8591"
         inkscape:connector-curvature="0"
         sodipodi:nodetypes="csssssccsscsc" />
      <path
         style="fill:#dfdfdf;fill-opacity:1;fill-rule:evenodd;stroke:#000000;stroke-width:1.29815495;stroke-linecap:round;stroke-linejoin:round;stroke-miterlimit:4;stroke-dasharray:none;stroke-opacity:1"
         d="m -73.10462,1161.3776 c 4.587762,-1.3213 9.51985,-0.8131 14.372431,-0.309 4.591081,0.4769 8.835935,3.6862 11.790475,10.7649 3.577672,8.5716 -1.779705,14.7049 -7.055913,18.3078 -10.66925,7.2854 -20.445365,11.4576 -30.76944,12.2166 -5.291919,0.389 -5.115872,-4.4321 -5.49174,-7.7537 -0.43821,-3.8725 0.807054,-7.1849 5.254433,-7.418 8.149012,-0.427 15.514748,-1.5008 21.790461,-4.7908 4.250311,-2.2282 6.898032,-4.9795 6.27526,-7.0974 -0.834485,-2.8379 -1.72527,-2.3837 -4.420755,-2.4842 -5.902792,-0.2203 -11.52392,0.4417 -16.845105,0.7727 z"
         id="path8593"
         inkscape:connector-curvature="0"
         sodipodi:nodetypes="cssssssssscc" />
      <path
         d="m -227.87061,1112.7592 a 104.76438,52.749031 0 0 1 142.293554,20.6811 104.76438,52.749031 0 0 1 -40.967204,71.6607 104.76438,52.749031 0 0 1 -142.3554,-20.573 104.76438,52.749031 0 0 1 40.75228,-71.6917"
         sodipodi:open="true"
         sodipodi:end="4.2053708"
         sodipodi:start="4.2083903"
         sodipodi:ry="52.749031"
         sodipodi:rx="104.76438"
         sodipodi:cy="1158.9493"
         sodipodi:cx="-177.27666"
         sodipodi:type="arc"
         id="path8595"
         style="opacity:1;fill:#dfdfdf;fill-opacity:1;fill-rule:nonzero;stroke:#000000;stroke-width:1.29815495;stroke-linecap:round;stroke-linejoin:round;stroke-miterlimit:4;stroke-dasharray:none;stroke-dashoffset:0;stroke-opacity:1" />
      <path
         style="opacity:1;fill:#b8b7b7;fill-opacity:1;fill-rule:nonzero;stroke:#000000;stroke-width:1.29815495;stroke-linecap:round;stroke-linejoin:round;stroke-miterlimit:4;stroke-dasharray:none;stroke-dashoffset:0;stroke-opacity:1"
         id="path8597"
         sodipodi:type="arc"
         sodipodi:cx="-177.27666"
         sodipodi:cy="1154.3597"
         sodipodi:rx="99.107536"
         sodipodi:ry="45.343079"
         sodipodi:start="4.2083903"
         sodipodi:end="4.2053708"
         sodipodi:open="true"
         d="m -225.13875,1114.6547 a 99.107536,45.343079 0 0 1 134.610293,17.7775 99.107536,45.343079 0 0 1 -38.755143,61.5995 99.107536,45.343079 0 0 1 -134.6688,-17.6845 99.107536,45.343079 0 0 1 38.55183,-61.6262" />
      <path
         style="fill:#f2f2f2;fill-rule:evenodd;stroke:#999999;stroke-width:0.86543661;stroke-linecap:butt;stroke-linejoin:miter;stroke-miterlimit:4;stroke-dasharray:none;stroke-opacity:1"
         d="m -187.59043,1005.4232 c 4.42723,7.5676 4.82477,14.9966 0.30935,22.0999 -2.0971,3.2991 -4.8874,3.1827 -7.41876,4.0178 -7.06936,2.3325 -2.60908,6.696 -0.9271,10.5087 5.15415,18.334 -11.80819,27.6646 -7.72727,5.0996 -9.23382,5.4583 -11.53107,16.0692 -5.56276,30.2903 3.12665,7.4501 8.60477,14.1053 17.30873,19.7817 7.71149,5.0291 8.00345,9.8453 0.61779,15.1451 -2.84854,2.0441 -4.60642,4.7317 2.93606,4.4819 7.77551,-0.2576 8.92027,-3.6967 11.59127,-6.0268 0.96574,4.4154 4.20931,9.9581 -10.04552,12.0535 -21.32065,3.1341 -21.73801,14.1098 -23.18165,25.5 l 6.80009,1.2365 c 0.5151,-5.5292 -1.06419,-12.52 10.6633,-10.5095 9.96687,1.7086 25.12836,0.7506 17.61802,-10.9718 -1.28738,-2.0094 -1.21265,-3.2131 0,-4.6365 5.56744,-6.5349 9.91042,-13.3344 6.18147,-19.7817 -1.1979,-2.0711 -1.39284,-3.4231 0.61865,-1.3911 0.89495,0.9041 1.69769,1.3033 2.78139,3.2454 l 0.464,-5.7175 c 3.9052,3.0298 5.90189,9.5009 7.57257,14.5265 0.49823,-3.9236 10.17836,-22.4109 -11.12731,-28.4351 -9.53771,-2.6968 -15.48962,-5.7807 -12.20906,-16.227 2.58865,-8.243 1.80483,-13.8333 -4.48183,-20.5541 -3.86059,-4.1272 -4.60333,-5.2116 -6.95394,-6.6454 -3.91277,-2.3867 -1.76307,-4.3324 0.61784,-5.873 17.92377,-11.5975 15.66892,-16.2004 14.68198,-21.6359 -0.0545,4.0687 -1.74914,7.6248 -5.1005,10.6633 1.11784,-11.1492 -1.60041,-16.8987 -6.02681,-20.2448 z m -3.24537,46.2079 c 6.92101,2.9903 3.14139,12.4304 0,14.5273 -8.58409,5.7299 -9.82223,9.2506 -1.08179,12.5176 11.40535,4.2631 18.7346,9.9034 25.34442,15.4544 -3.98984,-2.15 -8.42503,-3.0517 -13.44469,-2.3182 5.69739,3.6007 4.81139,6.2828 1.69963,8.6544 -0.69101,-6.2999 -5.75714,-11.027 -11.43577,-14.2181 -15.04769,-8.456 -14.99356,-12.9985 -10.35482,-16.69 6.36901,-5.0686 9.75892,-10.3621 9.27302,-17.9274 z"
         id="path8599"
         inkscape:connector-curvature="0" />
      <path
         id="path8602"
         d="m -107.44808,1074.4569 c -3.39702,6.1957 -3.70204,12.278 -0.23731,18.0936 1.60911,2.7011 3.75014,2.6057 5.6924,3.2895 5.424336,1.9096 2.001924,5.4822 0.71138,8.6037 -3.95482,15.0104 9.060434,22.6496 5.929111,4.1751 7.08507,4.4689 8.84774,13.1562 4.268334,24.7993 -2.399077,6.0996 -6.60246,11.5484 -13.280995,16.1957 -5.9171,4.1174 -6.14112,8.0606 -0.47404,12.3996 2.1857,1.6736 3.53449,3.874 -2.25284,3.6694 -5.96615,-0.2108 -6.84452,-3.0265 -8.89401,-4.9342 -0.74097,3.615 -3.22979,8.1529 7.70797,9.8685 16.359331,2.5659 7.06309,-3.6377 8.1708,5.6877 l -6.63832,3.635 c -0.39525,-4.5269 11.8536,2.3166 2.85514,3.9626 -7.64763,1.3989 -19.28099,0.6146 -13.51831,-8.9828 0.98781,-1.6451 0.93048,-2.6307 0,-3.796 -4.27192,-5.3503 -7.60424,-10.9172 -4.74302,-16.1957 0.91914,-1.6957 1.06868,-2.8026 -0.47474,-1.1389 -0.68668,0.7402 -1.30261,1.067 -2.13416,2.657 l -0.356,-4.681 c -2.99649,2.4806 -4.52853,7.7786 -5.81046,11.8932 -0.38226,-3.2124 -7.80982,-18.3483 8.53801,-23.2805 7.31825,-2.2079 11.88516,-4.7328 9.36795,-13.2853 -1.98622,-6.7488 -1.38479,-11.3257 3.43894,-16.8281 2.96226,-3.379 3.53215,-4.2669 5.33579,-5.4408 3.00224,-1.954 1.35281,-3.547 -0.47409,-4.8082 -13.75292,-9.4952 -12.02274,-13.2637 -11.2655,-17.7138 0.042,3.3311 1.34212,6.2425 3.91359,8.7302 -0.85769,-9.1281 1.22806,-13.8353 4.62438,-16.5748 z m 2.49023,37.8314 c -5.31047,2.4481 -2.4104,10.177 0,11.8937 6.586535,4.6912 7.536568,7.5737 0.83004,10.2484 -8.75132,3.4903 -14.37504,8.1082 -19.44676,12.6529 3.0614,-1.7603 6.46451,-2.4985 10.31608,-1.898 -4.37161,2.948 -3.69172,5.1439 -1.30409,7.0856 0.53021,-5.1578 4.41745,-9.028 8.77466,-11.6406 11.546079,-6.9231 11.504538,-10.6422 7.945214,-13.6646 -4.886904,-4.1497 -7.488014,-8.4836 -7.115144,-14.6774 z"
         style="fill:#f2f2f2;fill-rule:evenodd;stroke:#999999;stroke-width:0.86543661;stroke-linecap:butt;stroke-linejoin:miter;stroke-miterlimit:4;stroke-dasharray:none;stroke-opacity:1"
         inkscape:connector-curvature="0"
         sodipodi:nodetypes="ccsccsssscsccssssscccscssccccccscccssc" />
      <path
         inkscape:connector-curvature="0"
         style="fill:#f2f2f2;fill-rule:evenodd;stroke:#999999;stroke-width:0.86543661;stroke-linecap:butt;stroke-linejoin:miter;stroke-miterlimit:4;stroke-dasharray:none;stroke-opacity:1"
         d="m -279.03673,1096.3521 c 6.45556,2.8729 10.38187,7.528 11.147,14.2541 0.35513,3.124 -1.40603,4.3447 -2.53746,6.0652 -3.15984,4.8047 1.7272,5.5748 4.64463,7.2771 12.23788,9.5492 6.50765,23.5106 -2.18943,6.9132 -2.93145,7.847 0.92732,15.8274 11.62286,22.3189 5.60314,3.4007 12.24792,5.1908 20.37688,4.8442 7.2022,-0.3073 9.76853,2.6948 7.88689,9.5798 -0.72571,2.6554 -0.46634,5.2232 4.01502,1.5555 4.61979,-3.7811 3.61346,-6.5537 4.08897,-9.313 2.77905,2.4279 7.50784,4.5316 -0.15681,12.521 -11.46379,11.9497 -11.83987,5.5399 -7.07356,13.6314 l 5.5378,3.209 c -2.42712,-3.8416 -2.06697,0.5286 6.09038,-3.6113 6.93279,-3.5186 15.7149,-11.1883 5.31681,-15.3352 -1.78237,-0.7109 -2.33361,-1.5298 -2.29899,-3.0207 0.15902,-6.8447 -0.5608,-13.2926 -6.03447,-15.7601 -1.75836,-0.7927 -2.54772,-1.5829 -0.31204,-1.1938 0.99473,0.1731 1.68276,0.06 3.30748,0.8218 l -2.55169,-3.9405 c 3.88672,0.1591 8.31451,3.4471 11.82654,5.9449 -1.64135,-2.7878 -4.89781,-19.3305 -20.89355,-13.3544 -7.16066,2.6753 -12.32386,3.432 -15.50053,-4.8981 -2.50678,-6.5732 -5.75732,-9.851 -12.9282,-11.3081 -4.40364,-0.8947 -5.39487,-1.2561 -7.54111,-1.0979 -3.57239,0.2634 -3.22466,-2.0032 -2.53473,-4.1132 5.19314,-15.8851 1.53407,-17.8359 -1.76372,-20.9184 1.98406,2.6761 2.71276,5.7803 2.1732,9.3172 -4.8458,-7.7831 -9.35641,-10.2656 -13.71817,-10.3886 z m 20.93046,31.6122 c 5.70846,-1.2681 8.08166,6.6385 7.20329,9.4644 -2.40003,7.722 -1.41028,10.5911 5.54628,8.6578 9.07765,-2.5228 16.34944,-2.2541 23.13771,-1.7092 -3.50221,0.4533 -6.65729,1.9269 -9.35845,4.7374 5.26406,-0.3018 6.053,1.8574 5.32897,4.8485 -3.54565,-3.7832 -8.98284,-4.5086 -14.03232,-3.9487 -13.3806,1.4837 -15.59997,-1.5008 -14.59814,-6.0615 1.37557,-6.2618 0.82061,-11.2858 -3.22734,-15.9887 z"
         id="path8604"
         sodipodi:nodetypes="ccsccsssscsccssccscccsccsccccccscccssc" />
      <path
         inkscape:connector-curvature="0"
         style="opacity:1;fill:#b6004b;fill-opacity:1;fill-rule:nonzero;stroke:#000000;stroke-width:1.29815495;stroke-linecap:round;stroke-linejoin:round;stroke-miterlimit:4;stroke-dasharray:none;stroke-dashoffset:0;stroke-opacity:1"
         d="m -176.66688,1131.4917 a 93.57237,33.905545 0 0 0 -44.81507,4.2156 l -0.24764,0.049 a 93.57237,33.905545 0 0 0 -45.38895,37.6398 99.107534,45.34308 0 0 0 3.16594,2.9512 99.107534,45.34308 0 0 0 47.27872,19.5882 93.57237,33.905545 0 0 0 66.59973,1.9793 99.107534,45.34308 0 0 0 20.79077,-3.8835 99.107534,45.34308 0 0 0 46.16732,-25.6402 93.57237,33.905545 0 0 0 -11.273493,-19.3904 93.57237,33.905545 0 0 0 -82.277327,-17.509 z"
         id="path8606" />
      <path
         style="fill:#fedb00;fill-opacity:1;fill-rule:evenodd;stroke:#000000;stroke-width:0.86543661;stroke-linecap:round;stroke-linejoin:round;stroke-miterlimit:4;stroke-dasharray:none;stroke-opacity:1"
         d="m -165.70996,1188.2819 c 8.17587,0.3905 17.63362,1.1539 20.43136,-0.02 2.16654,-1.3683 4.48924,-2.7952 7.47248,-4.4698 -9.00058,-16.1643 -26.17578,-6.2152 -27.90384,4.4898 z"
         id="path8608"
         inkscape:connector-curvature="0"
         sodipodi:nodetypes="cccc" />
      <path
         style="fill:#f5a41b;fill-opacity:1;fill-rule:evenodd;stroke:#000000;stroke-width:0.86543661;stroke-linecap:round;stroke-linejoin:round;stroke-miterlimit:4;stroke-dasharray:none;stroke-opacity:1"
         d="m -168.6463,1186.891 2.93634,1.3909 c 7.75722,-17.6127 22.41663,-12.4307 27.90384,-4.4898 l 1.92279,-1.2283 c -6.9148,-9.735 -23.10552,-14.534 -32.76297,4.3272 z"
         id="path8610"
         inkscape:connector-curvature="0"
         sodipodi:nodetypes="ccccc" />
      <path
         style="fill:#fedb00;fill-opacity:1;fill-rule:evenodd;stroke:#000000;stroke-width:0.86543661;stroke-linecap:round;stroke-linejoin:round;stroke-miterlimit:4;stroke-dasharray:none;stroke-opacity:1"
         d="m -194.64489,1178.5908 c 10.36729,4.3595 15.13507,10.0757 20.24374,14.6432 -7.10895,1.0537 -13.7121,0.7795 -19.99787,-0.3278 -4.32558,-4.924 -4.3663,-10.0095 -0.24587,-14.3154 z"
         id="path8612"
         inkscape:connector-curvature="0"
         sodipodi:nodetypes="cccc" />
      <path
         style="fill:#f5a41b;fill-opacity:1;fill-rule:evenodd;stroke:#000000;stroke-width:0.86543661;stroke-linecap:round;stroke-linejoin:round;stroke-miterlimit:4;stroke-dasharray:none;stroke-opacity:1"
         d="m -196.58459,1177.7165 1.9397,0.8743 c -1.88812,4.3069 -2.69544,9.2892 0.24587,14.3154 l -3.82471,-1.3114 c -2.68017,-5.3976 -0.24686,-9.5725 1.63914,-13.8783 z"
         id="path8614"
         inkscape:connector-curvature="0"
         sodipodi:nodetypes="ccccc" />
      <path
         style="fill:#fedb00;fill-opacity:1;fill-rule:evenodd;stroke:#000000;stroke-width:0.86543661;stroke-linecap:round;stroke-linejoin:round;stroke-miterlimit:4;stroke-dasharray:none;stroke-opacity:1"
         d="m -160.08574,1161.4341 c -6.03638,0.796 -12.2268,1.1299 -18.46799,1.3114 -4.69248,-2.7652 -6.48874,-4.0822 -9.07003,-5.7918 5.83365,-13.1296 27.72512,-8.6954 27.53802,4.4804 z"
         id="path8616"
         inkscape:connector-curvature="0"
         sodipodi:nodetypes="cccc" />
      <path
         style="fill:#f5a41b;fill-opacity:1;fill-rule:evenodd;stroke:#000000;stroke-width:0.86543661;stroke-linecap:round;stroke-linejoin:round;stroke-miterlimit:4;stroke-dasharray:none;stroke-opacity:1"
         d="m -189.70008,1155.3146 2.07632,1.6391 c 4.78802,-7.2013 21.25482,-13.2315 27.53802,4.4804 l 2.84123,-0.1092 c -3.54778,-11.9011 -16.53759,-20.7375 -32.45557,-6.0103 z"
         id="path8618"
         inkscape:connector-curvature="0"
         sodipodi:nodetypes="ccccc" />
      <path
         style="fill:#fedb00;fill-opacity:1;fill-rule:evenodd;stroke:#000000;stroke-width:0.86543661;stroke-linecap:round;stroke-linejoin:round;stroke-miterlimit:4;stroke-dasharray:none;stroke-opacity:1"
         d="m -119.43437,1137.1745 2.29484,18.4679 c -5.579,1.6006 -9.91574,0.894 -14.53397,0.7103 -3.16984,-10.7014 -0.0238,-17.6492 12.23913,-19.1782 z"
         id="path8620"
         inkscape:connector-curvature="0"
         sodipodi:nodetypes="cccc" />
      <path
         style="fill:#f5a41b;fill-opacity:1;fill-rule:evenodd;stroke:#000000;stroke-width:0.86543661;stroke-linecap:round;stroke-linejoin:round;stroke-miterlimit:4;stroke-dasharray:none;stroke-opacity:1"
         d="m -119.76224,1134.6611 0.32787,2.5134 c -8.61096,2.3658 -13.94365,8.2603 -12.23913,19.1782 l -2.73197,-1.2567 c -1.24402,-9.6086 1.97757,-17.0434 14.64323,-20.4349 z"
         id="path8622"
         inkscape:connector-curvature="0"
         sodipodi:nodetypes="ccccc" />
      <path
         style="fill:#fedb00;fill-opacity:1;fill-rule:evenodd;stroke:#000000;stroke-width:0.86543661;stroke-linecap:round;stroke-linejoin:round;stroke-miterlimit:4;stroke-dasharray:none;stroke-opacity:1"
         d="m -203.68762,1158.8115 c -11.71221,3.0248 -16.16994,6.6229 -21.36382,10.1628 l 2.95049,4.7536 c 3.88196,0.5265 9.68601,-0.1482 15.13497,-0.601 4.50174,-4.2889 3.9026,-9.3004 3.27836,-14.3154 z"
         id="path8624"
         inkscape:connector-curvature="0"
         sodipodi:nodetypes="ccccc" />
      <path
         style="fill:#f5a41b;fill-opacity:1;fill-rule:evenodd;stroke:#000000;stroke-width:0.86543661;stroke-linecap:round;stroke-linejoin:round;stroke-miterlimit:4;stroke-dasharray:none;stroke-opacity:1"
         d="m -203.68762,1158.8115 c 1.56121,4.132 2.86135,8.364 -0.32787,14.3154 l -2.95049,0 c 2.50951,-3.3442 2.97373,-8.7494 3.27836,-14.3154 z"
         id="path8626"
         inkscape:connector-curvature="0"
         sodipodi:nodetypes="cccc" />
      <path
         style="fill:#fedb00;fill-opacity:1;fill-rule:evenodd;stroke:#000000;stroke-width:0.86543661;stroke-linecap:round;stroke-linejoin:round;stroke-miterlimit:4;stroke-dasharray:none;stroke-opacity:1"
         d="m -248.92866,1179.1372 c 5.14753,1.6971 9.32391,2.8939 11.08607,2.8471 12.36562,0.1895 15.26284,-0.4916 18.96535,-1.0987 -1.08811,-18.235 -28.48438,-19.6947 -30.05142,-1.7484 z"
         id="path8628"
         inkscape:connector-curvature="0"
         sodipodi:nodetypes="cccc" />
      <path
         style="fill:#f5a41b;fill-opacity:1;fill-rule:evenodd;stroke:#000000;stroke-width:0.86543661;stroke-linecap:round;stroke-linejoin:round;stroke-miterlimit:4;stroke-dasharray:none;stroke-opacity:1"
         d="m -250.89567,1178.4815 1.96701,0.6557 c 6.71843,-20.7918 29.00718,-10.2643 30.05142,1.7484 l 2.4041,0.1093 c -4.38214,-21.3942 -30.6089,-20.1967 -34.42253,-2.5134 z"
         id="path8630"
         inkscape:connector-curvature="0"
         sodipodi:nodetypes="ccccc" />
      <path
         style="fill:none;fill-rule:evenodd;stroke:#000000;stroke-width:0.86543661;stroke-linecap:round;stroke-linejoin:round;stroke-miterlimit:4;stroke-dasharray:none;stroke-opacity:1"
         d="m -246.80605,1176.8071 1.23636,1.5068"
         id="path8632"
         inkscape:connector-curvature="0" />
      <path
         style="fill:none;fill-rule:evenodd;stroke:#000000;stroke-width:0.86543661;stroke-linecap:round;stroke-linejoin:round;stroke-miterlimit:4;stroke-dasharray:none;stroke-opacity:1"
         d="m -243.98563,1173.7549 2.82041,4.6363"
         id="path8634"
         inkscape:connector-curvature="0" />
      <path
         style="fill:none;fill-rule:evenodd;stroke:#000000;stroke-width:0.86543661;stroke-linecap:round;stroke-linejoin:round;stroke-miterlimit:4;stroke-dasharray:none;stroke-opacity:1"
         d="m -239.04027,1170.9345 0.61814,7.7271"
         id="path8636"
         inkscape:connector-curvature="0" />
      <path
         style="fill:none;fill-rule:evenodd;stroke:#000000;stroke-width:0.86543661;stroke-linecap:round;stroke-linejoin:round;stroke-miterlimit:4;stroke-dasharray:none;stroke-opacity:1"
         d="m -235.56308,1178.9321 0.61819,-5.1386"
         id="path8638"
         inkscape:connector-curvature="0" />
      <path
         style="fill:none;fill-rule:evenodd;stroke:#000000;stroke-width:0.86543661;stroke-linecap:round;stroke-linejoin:round;stroke-miterlimit:4;stroke-dasharray:none;stroke-opacity:1"
         d="m -229.14958,1171.0504 -3.51584,7.843"
         id="path8640"
         inkscape:connector-curvature="0" />
      <path
         style="fill:none;fill-rule:evenodd;stroke:#000000;stroke-width:0.86543661;stroke-linecap:round;stroke-linejoin:round;stroke-miterlimit:4;stroke-dasharray:none;stroke-opacity:1"
         d="m -225.40194,1174.1412 -3.51584,5.2931"
         id="path8642"
         inkscape:connector-curvature="0" />
      <path
         style="fill:none;fill-rule:evenodd;stroke:#000000;stroke-width:0.86543661;stroke-linecap:round;stroke-linejoin:round;stroke-miterlimit:4;stroke-dasharray:none;stroke-opacity:1"
         d="m -222.58153,1176.6526 -3.709,3.2453"
         id="path8644"
         inkscape:connector-curvature="0" />
      <path
         style="fill:none;fill-rule:evenodd;stroke:#000000;stroke-width:0.86543661;stroke-linecap:round;stroke-linejoin:round;stroke-miterlimit:4;stroke-dasharray:none;stroke-opacity:1"
         d="m -223.19971,1180.3616 c -0.17274,0 -1.85671,1.0453 -1.93178,1.1204"
         id="path8646"
         inkscape:connector-curvature="0"
         sodipodi:nodetypes="cc" />
      <path
         style="fill:none;fill-rule:evenodd;stroke:#000000;stroke-width:0.86543661;stroke-linecap:round;stroke-linejoin:round;stroke-miterlimit:4;stroke-dasharray:none;stroke-opacity:1"
         d="m -218.76798,1168.4826 0.10926,3.6061"
         id="path8648"
         inkscape:connector-curvature="0" />
      <path
         style="fill:none;fill-rule:evenodd;stroke:#000000;stroke-width:0.86543661;stroke-linecap:round;stroke-linejoin:round;stroke-miterlimit:4;stroke-dasharray:none;stroke-opacity:1"
         d="m -216.36388,1167.062 2.13092,4.5896"
         id="path8650"
         inkscape:connector-curvature="0" />
      <path
         style="fill:none;fill-rule:evenodd;stroke:#000000;stroke-width:0.86543661;stroke-linecap:round;stroke-linejoin:round;stroke-miterlimit:4;stroke-dasharray:none;stroke-opacity:1"
         d="m -213.90513,1165.8053 4.4804,5.737"
         id="path8652"
         inkscape:connector-curvature="0" />
      <path
         style="fill:none;fill-rule:evenodd;stroke:#000000;stroke-width:0.86543661;stroke-linecap:round;stroke-linejoin:round;stroke-miterlimit:4;stroke-dasharray:none;stroke-opacity:1"
         d="m -211.22782,1164.6578 4.42576,2.0763"
         id="path8654"
         inkscape:connector-curvature="0" />
      <path
         style="fill:none;fill-rule:evenodd;stroke:#000000;stroke-width:0.86543661;stroke-linecap:round;stroke-linejoin:round;stroke-miterlimit:4;stroke-dasharray:none;stroke-opacity:1"
         d="m -207.62163,1162.2537 1.58453,0.6011"
         id="path8656"
         inkscape:connector-curvature="0" />
      <path
         style="fill:none;fill-rule:evenodd;stroke:#000000;stroke-width:0.86543661;stroke-linecap:round;stroke-linejoin:round;stroke-miterlimit:4;stroke-dasharray:none;stroke-opacity:1"
         d="m -194.61758,1182.0877 1.366,-0.3825"
         id="path8658"
         inkscape:connector-curvature="0" />
      <path
         style="fill:none;fill-rule:evenodd;stroke:#000000;stroke-width:0.86543661;stroke-linecap:round;stroke-linejoin:round;stroke-miterlimit:4;stroke-dasharray:none;stroke-opacity:1"
         d="m -189.64543,1184.6011 -5.46389,1.6938"
         id="path8660"
         inkscape:connector-curvature="0" />
      <path
         style="fill:none;fill-rule:evenodd;stroke:#000000;stroke-width:0.86543661;stroke-linecap:round;stroke-linejoin:round;stroke-miterlimit:4;stroke-dasharray:none;stroke-opacity:1"
         d="m -187.35059,1186.0217 -5.73707,5.4092"
         id="path8662"
         inkscape:connector-curvature="0" />
      <path
         style="fill:none;fill-rule:evenodd;stroke:#000000;stroke-width:0.86543661;stroke-linecap:round;stroke-linejoin:round;stroke-miterlimit:4;stroke-dasharray:none;stroke-opacity:1"
         d="m -185.16501,1187.7701 -2.73197,3.9886"
         id="path8664"
         inkscape:connector-curvature="0" />
      <path
         style="fill:none;fill-rule:evenodd;stroke:#000000;stroke-width:0.86543661;stroke-linecap:round;stroke-linejoin:round;stroke-miterlimit:4;stroke-dasharray:none;stroke-opacity:1"
         d="m -182.97948,1189.3546 -0.98349,3.333"
         id="path8666"
         inkscape:connector-curvature="0" />
      <path
         style="fill:none;fill-rule:evenodd;stroke:#000000;stroke-width:0.86543661;stroke-linecap:round;stroke-linejoin:round;stroke-miterlimit:4;stroke-dasharray:none;stroke-opacity:1"
         d="m -179.97434,1191.8134 -0.27318,1.6938"
         id="path8668"
         inkscape:connector-curvature="0" />
      <path
         style="fill:none;fill-rule:evenodd;stroke:#000000;stroke-width:0.86543661;stroke-linecap:round;stroke-linejoin:round;stroke-miterlimit:4;stroke-dasharray:none;stroke-opacity:1"
         d="m -160.52287,1183.6175 2.73196,4.6444"
         id="path8670"
         inkscape:connector-curvature="0" />
      <path
         style="fill:none;fill-rule:evenodd;stroke:#000000;stroke-width:0.86543661;stroke-linecap:round;stroke-linejoin:round;stroke-miterlimit:4;stroke-dasharray:none;stroke-opacity:1"
         d="m -155.55073,1184.3825 1.14744,4.1526"
         id="path8672"
         inkscape:connector-curvature="0" />
      <path
         style="fill:none;fill-rule:evenodd;stroke:#000000;stroke-width:0.86543661;stroke-linecap:round;stroke-linejoin:round;stroke-miterlimit:4;stroke-dasharray:none;stroke-opacity:1"
         d="m -151.67136,1179.465 0.38248,9.0154"
         id="path8674"
         inkscape:connector-curvature="0" />
      <path
         style="fill:none;fill-rule:evenodd;stroke:#000000;stroke-width:0.86543661;stroke-linecap:round;stroke-linejoin:round;stroke-miterlimit:4;stroke-dasharray:none;stroke-opacity:1"
         d="m -147.02704,1180.3939 -0.71031,5.9556"
         id="path8676"
         inkscape:connector-curvature="0" />
      <path
         style="fill:none;fill-rule:evenodd;stroke:#000000;stroke-width:0.86543661;stroke-linecap:round;stroke-linejoin:round;stroke-miterlimit:4;stroke-dasharray:none;stroke-opacity:1"
         d="m -143.36624,1181.2134 -1.69379,4.4258"
         id="path8678"
         inkscape:connector-curvature="0" />
      <path
         style="fill:none;fill-rule:evenodd;stroke:#000000;stroke-width:0.86543661;stroke-linecap:round;stroke-linejoin:round;stroke-miterlimit:4;stroke-dasharray:none;stroke-opacity:1"
         d="m -142.43737,1184.9835 -0.81961,1.8031"
         id="path8680"
         inkscape:connector-curvature="0" />
      <path
         style="fill:none;fill-rule:evenodd;stroke:#000000;stroke-width:0.86543661;stroke-linecap:round;stroke-linejoin:round;stroke-miterlimit:4;stroke-dasharray:none;stroke-opacity:1"
         d="m -182.97948,1158.0465 0.32787,1.8031"
         id="path8682"
         inkscape:connector-curvature="0" />
      <path
         style="fill:none;fill-rule:evenodd;stroke:#000000;stroke-width:0.86543661;stroke-linecap:round;stroke-linejoin:round;stroke-miterlimit:4;stroke-dasharray:none;stroke-opacity:1"
         d="m -181.94135,1154.8775 1.42061,4.1525"
         id="path8684"
         inkscape:connector-curvature="0" />
      <path
         style="fill:none;fill-rule:evenodd;stroke:#000000;stroke-width:0.86543661;stroke-linecap:round;stroke-linejoin:round;stroke-miterlimit:4;stroke-dasharray:none;stroke-opacity:1"
         d="m -178.55373,1153.73 0.60105,5.9011"
         id="path8686"
         inkscape:connector-curvature="0" />
      <path
         style="fill:none;fill-rule:evenodd;stroke:#000000;stroke-width:0.86543661;stroke-linecap:round;stroke-linejoin:round;stroke-miterlimit:4;stroke-dasharray:none;stroke-opacity:1"
         d="m -173.74549,1152.6919 -0.71031,8.1412"
         id="path8688"
         inkscape:connector-curvature="0" />
      <path
         style="fill:none;fill-rule:evenodd;stroke:#000000;stroke-width:0.86543661;stroke-linecap:round;stroke-linejoin:round;stroke-miterlimit:4;stroke-dasharray:none;stroke-opacity:1"
         d="m -170.08469,1157.9372 -1.47523,4.2072"
         id="path8690"
         inkscape:connector-curvature="0" />
      <path
         style="fill:none;fill-rule:evenodd;stroke:#000000;stroke-width:0.86543661;stroke-linecap:round;stroke-linejoin:round;stroke-miterlimit:4;stroke-dasharray:none;stroke-opacity:1"
         d="m -165.05789,1156.7898 -3.22371,5.3"
         id="path8692"
         inkscape:connector-curvature="0" />
      <path
         style="fill:none;fill-rule:evenodd;stroke:#000000;stroke-width:0.86543661;stroke-linecap:round;stroke-linejoin:round;stroke-miterlimit:4;stroke-dasharray:none;stroke-opacity:1"
         d="m -128.73573,1147.9077 7.64985,2.6272"
         id="path8694"
         inkscape:connector-curvature="0" />
      <path
         style="fill:none;fill-rule:evenodd;stroke:#000000;stroke-width:0.86543661;stroke-linecap:round;stroke-linejoin:round;stroke-miterlimit:4;stroke-dasharray:none;stroke-opacity:1"
         d="m -125.49035,1153.3553 5.13853,0.9273"
         id="path8696"
         inkscape:connector-curvature="0" />
      <path
         style="fill:none;fill-rule:evenodd;stroke:#000000;stroke-width:0.86543661;stroke-linecap:round;stroke-linejoin:round;stroke-miterlimit:4;stroke-dasharray:none;stroke-opacity:1"
         d="m -126.14717,1143.9282 5.25446,2.8591"
         id="path8698"
         inkscape:connector-curvature="0" />
      <path
         style="fill:none;fill-rule:evenodd;stroke:#000000;stroke-width:0.86543661;stroke-linecap:round;stroke-linejoin:round;stroke-miterlimit:4;stroke-dasharray:none;stroke-opacity:1"
         d="m -123.71313,1141.1465 3.4772,3.2067"
         id="path8700"
         inkscape:connector-curvature="0" />
      <path
         style="fill:none;fill-rule:evenodd;stroke:#000000;stroke-width:0.86543661;stroke-linecap:round;stroke-linejoin:round;stroke-miterlimit:4;stroke-dasharray:none;stroke-opacity:1"
         d="m -120.31318,1141.4169 1.15904,0.8886"
         id="path8702"
         inkscape:connector-curvature="0" />
      <path
         style="fill:none;fill-rule:evenodd;stroke:#000000;stroke-width:1.29815495;stroke-linecap:round;stroke-linejoin:round;stroke-miterlimit:4;stroke-dasharray:none;stroke-opacity:1"
         d="m -66.691116,1164.8162 c 7.069111,1.7749 10.9257,3.9857 9.852066,11.5907"
         id="path8704"
         inkscape:connector-curvature="0"
         sodipodi:nodetypes="cc" />
      <path
         style="fill:#b8b8b8;fill-opacity:1;fill-rule:evenodd;stroke:#1a1a1a;stroke-width:1.29815495;stroke-linecap:butt;stroke-linejoin:miter;stroke-miterlimit:4;stroke-dasharray:none;stroke-opacity:1"
         d="m -121.3218,1167.7139 -9.40247,-0.1862 c -2.85928,-0.057 -1.73744,-1.4215 -0.98349,-2.2402 0,0 67.511637,-72.6875 69.637323,-74.5002 2.125681,-1.8126 5.877673,-3.2518 7.143634,-3.3023 3.493369,-0.1394 8.765765,-0.5779 11.980797,0.6741 l -1.558015,12.7638 -5.882888,19.9647 c -4.66405,1.9016 -8.109582,-0.1203 -9.775855,-4.5764 -1.460013,-3.9046 -4.737984,-5.9863 -6.837633,-3.5564 l -50.612393,53.2591 z"
         id="path8706"
         inkscape:connector-curvature="0"
         sodipodi:nodetypes="csczscccsccc" />
      <path
         style="fill:#dfdfdf;fill-opacity:1;fill-rule:evenodd;stroke:#1a1a1a;stroke-width:1.29815495;stroke-linecap:butt;stroke-linejoin:miter;stroke-miterlimit:4;stroke-dasharray:none;stroke-opacity:1"
         d="m -121.3218,1167.7139 c 20.651,-25.6122 43.116734,-49.7607 66.144081,-73.4076 2.27898,-2.3403 4.979506,-4.4428 8.963452,-6.0271 4.597918,-1.8286 6.540421,2.8131 5.872607,8.4998 -2.048524,17.4441 -6.353257,21.5665 -10.045249,24.1086 -0.866211,0.5964 -1.601516,0.4524 -0.92725,-2.0091 2.011577,-7.3436 4.089971,-14.7951 4.790806,-21.4813 0.267134,-2.5486 -0.252855,-4.6821 -3.399928,-1.3909 -22.363571,23.3873 -44.321381,47.1467 -65.371379,71.553 z"
         id="path8708"
         inkscape:connector-curvature="0"
         sodipodi:nodetypes="cssssssscc" />
      <path
         style="fill:none;fill-rule:evenodd;stroke:#000000;stroke-width:1.29815495;stroke-linecap:round;stroke-linejoin:round;stroke-miterlimit:4;stroke-dasharray:none;stroke-opacity:1"
         d="m -136.26961,1164.413 c -6.35312,-0.797 -13.38172,4.4454 -0.43709,6.9938"
         id="path8710"
         inkscape:connector-curvature="0"
         sodipodi:nodetypes="cc" />
      <path
         style="fill:none;fill-rule:evenodd;stroke:#000000;stroke-width:1.29815495;stroke-linecap:round;stroke-linejoin:round;stroke-miterlimit:4;stroke-dasharray:none;stroke-opacity:1"
         d="m -125.77891,1172.9367 c 5.41425,0.7362 28.131317,-0.8391 23.38548,-6.3381"
         id="path8712"
         inkscape:connector-curvature="0"
         sodipodi:nodetypes="cc" />
      <path
         style="fill:none;fill-rule:evenodd;stroke:#000000;stroke-width:1.29815495;stroke-linecap:round;stroke-linejoin:round;stroke-miterlimit:4;stroke-dasharray:none;stroke-opacity:1"
         d="m -138.89227,1155.1244 c -1.32585,2.1929 0.62264,3.9179 11.47418,4.3711"
         id="path8714"
         inkscape:connector-curvature="0"
         sodipodi:nodetypes="cc" />
      <path
         style="fill:none;fill-rule:evenodd;stroke:#000000;stroke-width:1.29815495;stroke-linecap:round;stroke-linejoin:round;stroke-miterlimit:4;stroke-dasharray:none;stroke-opacity:1"
         d="m -155.28394,1148.1306 c 13.52223,1.8612 7.1926,4.6113 1.74844,7.3217 1.47635,1.3949 1.93269,2.9028 -1.20205,4.8082"
         id="path8716"
         inkscape:connector-curvature="0"
         sodipodi:nodetypes="ccc" />
      <path
         style="fill:none;fill-rule:evenodd;stroke:#000000;stroke-width:1.29815495;stroke-linecap:round;stroke-linejoin:round;stroke-miterlimit:4;stroke-dasharray:none;stroke-opacity:1"
         d="m -185.23089,1161.1612 c 1.6109,1.5226 4.03734,3.4551 6.40876,4.1876 5.28817,1.6335 13.86166,0.9641 19.98183,-1.401"
         id="path8718"
         inkscape:connector-curvature="0"
         sodipodi:nodetypes="csc" />
      <path
         style="fill:none;fill-rule:evenodd;stroke:#000000;stroke-width:1.29815495;stroke-linecap:round;stroke-linejoin:round;stroke-miterlimit:4;stroke-dasharray:none;stroke-opacity:1"
         d="m -172.87766,1186.3779 c -3.41216,5.4702 12.56943,4.3538 23.604,4.9175"
         id="path8720"
         inkscape:connector-curvature="0"
         sodipodi:nodetypes="cc" />
      <path
         style="fill:none;fill-rule:evenodd;stroke:#000000;stroke-width:1.29815495;stroke-linecap:round;stroke-linejoin:round;stroke-miterlimit:4;stroke-dasharray:none;stroke-opacity:1"
         d="m -201.5007,1191.4124 c -2.84114,5.1856 13.39565,4.2662 24.04112,5.1361"
         id="path8722"
         inkscape:connector-curvature="0"
         sodipodi:nodetypes="cc" />
      <path
         style="fill:none;fill-rule:evenodd;stroke:#000000;stroke-width:1.29815495;stroke-linecap:round;stroke-linejoin:round;stroke-miterlimit:4;stroke-dasharray:none;stroke-opacity:1"
         d="m -212.61732,1176.6599 c 6.02448,-1.1733 16.32365,-1.5089 12.67622,-5.136"
         id="path8724"
         inkscape:connector-curvature="0"
         sodipodi:nodetypes="cc" />
      <path
         style="fill:none;fill-rule:evenodd;stroke:#000000;stroke-width:1.29815495;stroke-linecap:round;stroke-linejoin:round;stroke-miterlimit:4;stroke-dasharray:none;stroke-opacity:1"
         d="m -213.09193,1180.0398 c 1.87774,6.6031 -14.31622,5.7002 -23.71331,5.136"
         id="path8726"
         inkscape:connector-curvature="0"
         sodipodi:nodetypes="cc" />
      <path
         style="fill:none;fill-rule:evenodd;stroke:#000000;stroke-width:1.29815495;stroke-linecap:round;stroke-linejoin:round;stroke-miterlimit:4;stroke-dasharray:none;stroke-opacity:1"
         d="m -223.36405,1162.9924 c -10.60982,-1.4117 -25.8538,-1.7702 -18.24938,-7.3216 -5.58877,-2.3396 -13.00176,-3.9495 -10.27213,-9.6164"
         id="path8728"
         inkscape:connector-curvature="0"
         sodipodi:nodetypes="ccc" />
      <path
         sodipodi:nodetypes="cccc"
         inkscape:connector-curvature="0"
         id="path8730"
         d="m -219.03756,1145.4449 c 8.17586,0.3905 17.63361,1.154 20.43135,-0.02 2.16654,-1.3683 4.48924,-2.7951 7.47249,-4.4697 -9.00059,-16.1643 -26.17578,-6.2153 -27.90384,4.4897 z"
         style="fill:#fedb00;fill-opacity:1;fill-rule:evenodd;stroke:#000000;stroke-width:0.86543661;stroke-linecap:round;stroke-linejoin:round;stroke-miterlimit:4;stroke-dasharray:none;stroke-opacity:1" />
      <path
         sodipodi:nodetypes="ccccc"
         inkscape:connector-curvature="0"
         id="path8732"
         d="m -221.9739,1144.0541 2.93634,1.3908 c 7.75721,-17.6126 22.41662,-12.4307 27.90384,-4.4897 l 1.92278,-1.2283 c -6.91479,-9.735 -23.10551,-14.534 -32.76296,4.3272 z"
         style="fill:#f5a41b;fill-opacity:1;fill-rule:evenodd;stroke:#000000;stroke-width:0.86543661;stroke-linecap:round;stroke-linejoin:round;stroke-miterlimit:4;stroke-dasharray:none;stroke-opacity:1" />
      <path
         inkscape:connector-curvature="0"
         id="path8734"
         d="m -213.85048,1140.7806 2.73196,4.6443"
         style="fill:none;fill-rule:evenodd;stroke:#000000;stroke-width:0.86543661;stroke-linecap:round;stroke-linejoin:round;stroke-miterlimit:4;stroke-dasharray:none;stroke-opacity:1" />
      <path
         inkscape:connector-curvature="0"
         id="path8736"
         d="m -208.87833,1141.5456 1.14744,4.1525"
         style="fill:none;fill-rule:evenodd;stroke:#000000;stroke-width:0.86543661;stroke-linecap:round;stroke-linejoin:round;stroke-miterlimit:4;stroke-dasharray:none;stroke-opacity:1" />
      <path
         inkscape:connector-curvature="0"
         id="path8738"
         d="m -204.99897,1136.6281 0.38248,9.0154"
         style="fill:none;fill-rule:evenodd;stroke:#000000;stroke-width:0.86543661;stroke-linecap:round;stroke-linejoin:round;stroke-miterlimit:4;stroke-dasharray:none;stroke-opacity:1" />
      <path
         inkscape:connector-curvature="0"
         id="path8740"
         d="m -200.35465,1137.5569 -0.7103,5.9557"
         style="fill:none;fill-rule:evenodd;stroke:#000000;stroke-width:0.86543661;stroke-linecap:round;stroke-linejoin:round;stroke-miterlimit:4;stroke-dasharray:none;stroke-opacity:1" />
      <path
         inkscape:connector-curvature="0"
         id="path8742"
         d="m -196.69385,1138.3765 -1.69379,4.4258"
         style="fill:none;fill-rule:evenodd;stroke:#000000;stroke-width:0.86543661;stroke-linecap:round;stroke-linejoin:round;stroke-miterlimit:4;stroke-dasharray:none;stroke-opacity:1" />
      <path
         inkscape:connector-curvature="0"
         id="path8744"
         d="m -195.76498,1142.1466 -0.81961,1.8031"
         style="fill:none;fill-rule:evenodd;stroke:#000000;stroke-width:0.86543661;stroke-linecap:round;stroke-linejoin:round;stroke-miterlimit:4;stroke-dasharray:none;stroke-opacity:1" />
      <path
         sodipodi:nodetypes="cc"
         inkscape:connector-curvature="0"
         id="path8746"
         d="m -226.20524,1143.541 c -3.41216,5.4701 12.56943,4.3537 23.60401,4.9175"
         style="fill:none;fill-rule:evenodd;stroke:#000000;stroke-width:1.29815495;stroke-linecap:round;stroke-linejoin:round;stroke-miterlimit:4;stroke-dasharray:none;stroke-opacity:1" />
      <path
         style="fill:none;fill-rule:evenodd;stroke:none;stroke-width:1px;stroke-linecap:butt;stroke-linejoin:miter;stroke-opacity:1"
         d="m -266.43696,1193.8315 c 36.08779,23.9991 131.28301,32.86 173.705475,0"
         id="path8748"
         inkscape:connector-curvature="0"
         sodipodi:nodetypes="cc" />
    </g>
  </g>
</svg>
